<?xml version="1.0" encoding="utf-8"?>
<!-- Generator: Adobe Illustrator 25.0.0, SVG Export Plug-In . SVG Version: 6.00 Build 0)  -->
<svg version="1.1" id="Layer_2" xmlns="http://www.w3.org/2000/svg" xmlns:xlink="http://www.w3.org/1999/xlink" x="0px" y="0px"
	 viewBox="0 0 1920 1080" style="enable-background:new 0 0 1920 1080;" xml:space="preserve">
<style type="text/css">
	.st0{fill:none;stroke:#FF0000;stroke-miterlimit:10;}
</style>
<path class="st0" d="M780.73,541c0,0,10.21-17.59,21.5-16.72c11.29,0.87,23.46,30.84,27.15,35.84c3.69,5,29.54,24.33,37.57,30.19
	c8.04,5.86,28.02,38.23,30.19,58.43c2.17,20.2,4.78,30.62,7.6,34.75c2.82,4.13,18.03,18.03,39.31,19.33s16.51,1.95,21.72-1.74
	c5.21-3.69,2.17-23.89,0.65-28.67c-1.52-4.78-25.85-62.33-28.02-64.94c-2.17-2.61-16.29-38.88-21.5-42.79
	c-5.21-3.91-17.38-24.98-15.64-20.42c1.74,4.56-24.98-27.8-30.41-34.53s-9.56-14.99-0.22-21.94c9.34-6.95,43.66-3.04,48.22-1.74
	c4.56,1.3,57.77,15.42,67.76,14.77s21.29-3.48,26.28-12.16c5-8.69,11.51-14.12,8.25-26.93c-3.26-12.81-12.81-32.58-12.81-32.58
	s-8.9-12.6-3.69-20.2c5.21-7.6,44.96-26.06,50.82-29.1c5.86-3.04,20.2-7.38,32.14,0.43s20.2,7.82,18.9,16.07
	c-1.3,8.25-9.12,25.19-7.38,33.67s-2.61,26.06,8.9,39.31c11.51,13.25,26.93,18.9,33.45,18.9"/>
</svg>
