<svg xmlns="http://www.w3.org/2000/svg" viewBox="0 0 1099.56 767.1"><title>Recurso 2</title><g id="Capa_2" data-name="Capa 2"><g id="Capa_1-2" data-name="Capa 1"><path d="M633.3,251c17.23,5.41,30.73,16.29,34.61,41.19s-23.26,40.35-25.71,40.39-26.14,3.17-28-35.85S625.06,248.44,633.3,251Z" fill="none" stroke="#000" stroke-miterlimit="10" stroke-width="0.5"/><path d="M636,269.39c11.44,2,23.38,6.86,21.41,20.27-1.84,12.57-3.31,17.85-19.58,23-1.62.51-17.94,3.05-17.16-17.75S630.56,268.43,636,269.39Z" fill="none" stroke="#000" stroke-miterlimit="10" stroke-width="0.5"/><path d="M630.52,211.2c31-10,64.47,27.27,72.35,81.64s-42.36,85.36-61.27,89.6c-5.55,1.24-60.61,8.08-63.11-77.28S611.8,217.24,630.52,211.2Z" fill="none" stroke="#000" stroke-miterlimit="10" stroke-width="0.5"/><path d="M682.31,396.7c-48.66,72.28-102.1-14.86-120.76-83.5s45-129.32,53-131,92.39-20.56,105,90C731.34,376.63,699.29,371.49,682.31,396.7Z" fill="none" stroke="#000" stroke-miterlimit="10" stroke-width="0.5"/><path d="M549.56,216.2c7-11,30-22,37-36s36-21,43-22,35,5,59,9,70,16,85,6,24-7,44-10,53-7,49,13-24,16-45,25-70,3-82,8-9,34-5,50,6,34,19,50,43,26,34,51-13,44-38,47-34-27-58,17-29,71-39,74-70,4-90-38-29-71-24-100-15-53-15-85S549.56,216.2,549.56,216.2Z" fill="none" stroke="#000" stroke-miterlimit="10" stroke-width="0.5"/><path d="M668.5,261.2s13,20,11,35-12,27-15,33-17,13-24,15-17-1-23-2-18-5-18-19,1-19,4-34-2-17,1-30,1-19,15-21a43.13,43.13,0,0,1,29,6C653.51,247.2,668.5,261.2,668.5,261.2Z" fill="none" stroke="#000" stroke-miterlimit="10" stroke-width="0.5"/><path d="M679.5,257.2c0,2,10,20,12,31s4,28-2,35-24,19-32,30-19,21-30,18-21-1-28-17-10-22-9-41,5-16,4-37,1-33,10-41,15-12,25-12c30.58,0,42,10,45,16S679.5,257.2,679.5,257.2Z" fill="none" stroke="#000" stroke-miterlimit="10" stroke-width="0.5"/><path d="M703.49,145.2c47,4,26,15,89,5s72-13,113.94-10,104-10,86,27-71,23-108,37-88,14-99.95,27-34,8-8,51,67,56,69,63,6,22,27,38,37,24,18,41-25,38-29,56-22,41-58,19-52-54-70-53-44-1-46,46,8,96-29,92-107-32-113-68-15-84-22-118,6-45-13-86-19-77,1-103,24-37,39-55,35-50,28-70-28-46-5-47,16-38,46,5,44,39,53,28,36-15,31,6-19,52-45,38-41,7-44,16S703.49,145.2,703.49,145.2Z" fill="none" stroke="#000" stroke-miterlimit="10" stroke-width="0.5"/><path d="M773.45,424.2c10-11,34-14,36-43s4-39,13-25,25,21,30,36,4,12-18,23-51,13-48,36-26,5-32-4S773.45,424.2,773.45,424.2Z" fill="none" stroke="#000" stroke-miterlimit="10" stroke-width="0.5"/><path d="M804.44,462.2c11-12,24-17,28-16s7,15,0,23-28,0-28-7" fill="none" stroke="#000" stroke-miterlimit="10" stroke-width="0.5"/><path d="M534.56,56.2c4.54,11.81,41,38,1,81s-39,71-129.94,72-205.91,19-211.9,82,8,151,51,192,54,31,113,54,77,65,129.94,63,24-22,80-20c44.58,1.57,97.17,48.64,130.94,7,23.3-28.73,11-88,9-111s63,20,97,39,66-21,79-53,36-45,7-104-56-72,6-99,144.93-29,150.93-88,83-129-65-94-159.93,43-190.91,40-49-51-70-67-37,6-64-7-19-35-43-35S529.56,43.2,534.56,56.2Z" fill="none" stroke="#000" stroke-miterlimit="10" stroke-width="0.5"/><path d="M448.6,259.2c-101.06-8.79-138.94,19-156.93,32s-37,37-9,81-18,14,54,87,128.94,122,141.94,89,25-41,18-89S471.59,261.2,448.6,259.2Z" fill="none" stroke="#000" stroke-miterlimit="10" stroke-width="0.5"/><path d="M377.13,432.7c-24.22-21.2-51-58-48-83s35-37,57-41,47-5,51,20,7,79,10,104,14.5,29.5,9.5,67.5-23,20-48-15S385.13,439.7,377.13,432.7Z" fill="none" stroke="#000" stroke-miterlimit="10" stroke-width="0.5"/><path d="M516.07,61.7c10.91,7.8,30,3,14,38s-17,35-41,58-94.95,42-123.94,42-143.94,22-162.93,38-65.47,137.5-9.49,221.5,123.94,74,145.93,88,94,42,121,64,63-14,98.95-20,102.34,27.44,108,29c18,5,62.75,8.78,56-59-7-70,43-49,66-41s89,17,113.95-69,4-111-21-129-10-53,37-65,171.92-51,168.92-94,12-108,12-112-125.95,0-167.93,20-96,40-126.94,27-44-46-58-53-54-17-67-15-31-23-39-28-87-1-105,19S505.58,54.2,516.07,61.7Z" fill="none" stroke="#000" stroke-miterlimit="10" stroke-width="0.5"/><path d="M504.08,43.7c-12,9-13,28,0,40s28,28,0,42-78,71-163.93,64-199.41,42.5-203.41,60.5-37,66-6,138,71,143,137.93,165,110,26,127,38,59,42,72,48,52-4,81-17,48-18,72,0,37,32,59,26,61-31,60-57-2-78,22-70" fill="none" stroke="#000" stroke-miterlimit="10" stroke-width="0.5"/><path d="M468.59,59.2c1,22,14,33,7,49s-4,48-56,50-157.92,14-178.91,17-123.95,42-131.94,63-52,65-15,155,60,140,116,164,108,27,139.94,38,43,41,73,64,13,67,82,28,78-70,94.95-56,59,43,86,35,68-27,76-50,8-30,7-54-19-16,5-28" fill="none" stroke="#000" stroke-miterlimit="10" stroke-width="0.5"/><path d="M456.6,73.2c-2,14,1,60-30,64s-110.95-2-144.93,8-170.92,54-194.91,85-48,62-52,93-9,94,13,117,47,80,70,105,85,84,99,96,34,1,98,24,72,49,106,66,122.95-35,137.94-53,22-25,41-19" fill="none" stroke="#000" stroke-miterlimit="10" stroke-width="0.5"/><path d="M402.62,109.2c-22,15-34,15-74,14s-105,14-135.94,27-127.94,69-139.94,88-45,61-45,75-17,81,0,113,38,11,85,105,76,108,91,118a182,182,0,0,0,80,30c39,5,59,4,84,38s85,56,115,48,79-40,101.95-62,50-36,50-36" fill="none" stroke="#000" stroke-miterlimit="10" stroke-width="0.5"/><path d="M248.69,274.2c13.39-8,28-10,67-24s76-3,101-12,46-21,59,19,34,116,35,157,4,145,0,159-25,22-123.94-35-149.93-90-157.93-132S233.7,283.2,248.69,274.2Z" fill="none" stroke="#000" stroke-miterlimit="10" stroke-width="0.5"/><path d="M378.13,371.7c-2.45-22.06-1-29,15-31s25-29,29,22,10,97,17,110-23,16-31-13-14-38-25-52S379.13,380.7,378.13,371.7Z" fill="none" stroke="#000" stroke-miterlimit="10" stroke-width="0.5"/><path d="M398.62,390.2c1-14,3-42,10-18s3,64,0,52S398.62,390.2,398.62,390.2Z" fill="none" stroke="#000" stroke-miterlimit="10" stroke-width="0.5"/></g></g></svg>